<svg xmlns="http://www.w3.org/2000/svg" viewBox="0 0 24.05 24.05"><defs><style>.cls-1{fill:#fff;}</style></defs><title>Recurso 43</title><g id="Capa_2" data-name="Capa 2"><g id="Capa_1-2" data-name="Capa 1"><path class="cls-1" d="M21.65,0H2.41A2.4,2.4,0,0,0,0,2.41V21.65a2.41,2.41,0,0,0,2.41,2.4H21.65a2.41,2.41,0,0,0,2.4-2.4V2.41A2.41,2.41,0,0,0,21.65,0ZM7.22,20.44H3.61V9.62H7.22m-1.81-2A2.18,2.18,0,1,1,7.59,5.41,2.18,2.18,0,0,1,5.41,7.59Zm15,12.85h-3.6V14.07a1.81,1.81,0,0,0-3.61,0v6.37H9.62V9.62h3.61v1.44a3.78,3.78,0,0,1,3-1.68,4.21,4.21,0,0,1,4.2,4.21"/></g></g></svg>