<svg xmlns="http://www.w3.org/2000/svg" width="174.123" height="40.686" viewBox="0 0 174.123 40.686"><g transform="translate(-65 -46.904)"><g transform="translate(65 46.904)"><g transform="translate(0)"><path d="M301.008,490.67l-9.505,9.5,9.505,9.5h-2.823l-8.089-8.1-6.2,6.195V504.96l14.286-14.29ZM177.683,505.957v9.5h15.208v-1.824H179.584v-7.679Zm31.575,9.5v-17.1h1.9v7.6h15.208v1.9H211.159v7.6Zm58.274-22.89H250.422v-1.9h17.109Z" transform="translate(-127.203 -490.67)" fill="#2e2a29" fill-rule="evenodd"/><path d="M184.615,597.849a3.5,3.5,0,0,0-1.015-.614,3.13,3.13,0,0,0-1.125-.2,2.48,2.48,0,0,0-1.856.732,2.851,2.851,0,0,0-.019,3.757,2.32,2.32,0,0,0,1.757.732,3.2,3.2,0,0,0,1.178-.219,3.744,3.744,0,0,0,1.071-.661v1.279a3.294,3.294,0,0,1-.994.49,4,4,0,0,1-1.164.162,4.079,4.079,0,0,1-1.476-.261A3.482,3.482,0,0,1,179,601.094a3.829,3.829,0,0,1-.273-1.443,3.786,3.786,0,0,1,.273-1.438,3.568,3.568,0,0,1,1.981-1.959,3.9,3.9,0,0,1,1.45-.265,3.812,3.812,0,0,1,1.169.179,4.1,4.1,0,0,1,1.08.542l-.062,1.139Zm10.837,1.8a2.648,2.648,0,0,0-.193-1,2.609,2.609,0,0,0-.554-.846,2.454,2.454,0,0,0-.815-.563,2.5,2.5,0,0,0-2.782.563,2.53,2.53,0,0,0-.552.841,2.688,2.688,0,0,0-.19,1.008,2.637,2.637,0,0,0,.19,1,2.593,2.593,0,0,0,.552.841,2.512,2.512,0,0,0,2.772.567,2.547,2.547,0,0,0,.825-.567,2.609,2.609,0,0,0,.747-1.839Zm1.179,0a3.54,3.54,0,0,1-1.09,2.583,3.78,3.78,0,0,1-1.213.794,3.719,3.719,0,0,1-1.416.276,3.782,3.782,0,0,1-1.435-.277,3.72,3.72,0,0,1-1.2-.793,3.527,3.527,0,0,1-.809-1.175,3.62,3.62,0,0,1,.809-4,3.683,3.683,0,0,1,1.208-.789,3.894,3.894,0,0,1,2.856,0,3.69,3.69,0,0,1,2.017,1.981,3.592,3.592,0,0,1,.278,1.4Zm4.767,3.467v-7.237l4.427,4.255c.12.12.242.248.367.385s.254.291.39.461v-4.828h1.042v7.237l-4.513-4.334c-.12-.118-.237-.242-.349-.372s-.219-.266-.321-.409v4.842Zm10.9-1.394.9-.417a1.241,1.241,0,0,0,.473.71,1.46,1.46,0,0,0,.875.245,1.128,1.128,0,0,0,.8-.281.982.982,0,0,0,.3-.75q0-.613-1.02-1.094c-.1-.047-.169-.083-.219-.1a4.911,4.911,0,0,1-1.535-1.016,1.669,1.669,0,0,1-.383-1.11,1.783,1.783,0,0,1,.578-1.38,2.158,2.158,0,0,1,1.517-.528,2.564,2.564,0,0,1,1.289.3,1.564,1.564,0,0,1,.718.852l-.883.458a1.459,1.459,0,0,0-.46-.48,1.078,1.078,0,0,0-.575-.152,1.055,1.055,0,0,0-.726.238.8.8,0,0,0-.27.636q0,.629,1.182,1.171c.06.029.107.052.143.066a4.222,4.222,0,0,1,1.418.93,1.7,1.7,0,0,1,.385,1.135,2.047,2.047,0,0,1-.624,1.572,2.373,2.373,0,0,1-1.685.583,2.44,2.44,0,0,1-1.458-.409,1.913,1.913,0,0,1-.744-1.171Zm11.467-4.605v6h-1.13v-6h-1.851v-.964H225.6v.964Zm7.307,2.006h.206a2.285,2.285,0,0,0,1.193-.209.849.849,0,0,0,.3-.742.946.946,0,0,0-.317-.81,2.078,2.078,0,0,0-1.172-.235h-.206v2ZM231,600v3.117H229.94v-6.964h1.578a4.972,4.972,0,0,1,1.078.091,1.593,1.593,0,0,1,1.153.951,2.15,2.15,0,0,1,.176.875,1.956,1.956,0,0,1-.4,1.31,1.783,1.783,0,0,1-1.194.568l2.4,3.169h-1.276L231.128,600Zm7.835-3.847h1.12v4.229a2.023,2.023,0,0,0,.435,1.414,2.017,2.017,0,0,0,2.6,0,2.022,2.022,0,0,0,.435-1.414v-4.229h1.13v4.333a2.846,2.846,0,0,1-.713,2.116,3.645,3.645,0,0,1-4.3,0,2.855,2.855,0,0,1-.71-2.117v-4.333Zm16.339,1.695a3.5,3.5,0,0,0-1.015-.614,3.132,3.132,0,0,0-1.125-.2,2.479,2.479,0,0,0-1.856.732,2.85,2.85,0,0,0-.02,3.757,2.321,2.321,0,0,0,1.757.732,3.2,3.2,0,0,0,1.178-.219,3.745,3.745,0,0,0,1.072-.661v1.279a3.291,3.291,0,0,1-.994.49,4,4,0,0,1-1.164.162,4.077,4.077,0,0,1-1.476-.261,3.48,3.48,0,0,1-1.975-1.948,3.823,3.823,0,0,1-.273-1.443,3.78,3.78,0,0,1,.273-1.438,3.569,3.569,0,0,1,1.981-1.959,3.9,3.9,0,0,1,1.45-.265,3.814,3.814,0,0,1,1.169.179,4.1,4.1,0,0,1,1.08.542l-.061,1.139Zm7.125-.73v6h-1.13v-6H259.32v-.964h4.823v.964Zm6.2,6v-6.964h1.13v6.964Zm12.191-3.467a2.641,2.641,0,0,0-.193-1,2.607,2.607,0,0,0-.553-.846,2.455,2.455,0,0,0-.816-.563,2.485,2.485,0,0,0-.978-.2,2.51,2.51,0,0,0-.979.195,2.479,2.479,0,0,0-.825.566,2.525,2.525,0,0,0-.552.841,2.69,2.69,0,0,0-.19,1.008,2.639,2.639,0,0,0,.19,1,2.588,2.588,0,0,0,.552.841,2.512,2.512,0,0,0,2.772.567,2.551,2.551,0,0,0,.825-.567,2.611,2.611,0,0,0,.747-1.839Zm1.179,0a3.538,3.538,0,0,1-1.09,2.583,3.777,3.777,0,0,1-1.213.794,3.718,3.718,0,0,1-1.416.276,3.782,3.782,0,0,1-1.435-.277,3.715,3.715,0,0,1-1.2-.793,3.528,3.528,0,0,1-.809-1.175,3.619,3.619,0,0,1,.809-4,3.678,3.678,0,0,1,1.208-.789,3.894,3.894,0,0,1,2.856,0,3.691,3.691,0,0,1,2.017,1.981,3.6,3.6,0,0,1,.278,1.4Zm4.768,3.467v-7.237l4.427,4.255c.12.12.242.248.367.385s.254.291.39.461v-4.828h1.043v7.237l-4.513-4.334c-.12-.118-.237-.242-.349-.372s-.219-.266-.322-.409v4.842Zm10.9-1.394.9-.417a1.239,1.239,0,0,0,.472.71,1.46,1.46,0,0,0,.875.245,1.127,1.127,0,0,0,.8-.281.981.981,0,0,0,.3-.75q0-.613-1.02-1.094c-.1-.047-.169-.083-.219-.1a4.911,4.911,0,0,1-1.535-1.016,1.671,1.671,0,0,1-.383-1.11,1.783,1.783,0,0,1,.578-1.38,2.158,2.158,0,0,1,1.516-.528,2.563,2.563,0,0,1,1.289.3,1.563,1.563,0,0,1,.718.852l-.883.458a1.458,1.458,0,0,0-.46-.48,1.078,1.078,0,0,0-.575-.152,1.056,1.056,0,0,0-.726.238.8.8,0,0,0-.269.636q0,.629,1.182,1.171c.06.029.107.052.143.066a4.219,4.219,0,0,1,1.418.93,1.7,1.7,0,0,1,.385,1.135,2.048,2.048,0,0,1-.623,1.572,2.374,2.374,0,0,1-1.686.583,2.44,2.44,0,0,1-1.458-.409A1.912,1.912,0,0,1,297.532,601.724Z" transform="translate(-127.92 -563.081)" fill="#2e2a29" fill-rule="evenodd"/><path d="M56.505,521.862l-9.5,9.495h-31.2V500.166l9.5-9.5v31.191Z" transform="translate(-15.808 -490.671)" fill="#e23e00" fill-rule="evenodd"/><path d="M164.816,515.46v-19l5.787-5.785v19l-5.787,5.786Zm-149.008-15.3,9.5-9.495H56.5v31.191l-9.5,9.5V500.165ZM83.4,515.46v-19l5.786-5.785v19L83.4,515.46Zm14.466-19,5.787-5.785h19.01v19l-5.787,5.786v-19Zm58.274,13.22-5.787,5.785h-19.01v-19l5.787-5.785v19Z" transform="translate(-15.808 -490.67)" fill="#f06900" fill-rule="evenodd"/></g></g></g></svg>