<svg xmlns="http://www.w3.org/2000/svg" width="213.628" height="49.916" viewBox="0 0 213.628 49.916"><g transform="translate(-65 -46.904)"><g transform="translate(65 46.904)"><g transform="translate(0)"><path d="M328.988,490.67l-11.662,11.658,11.662,11.658h-3.464l-9.924-9.932-7.6,7.6V508.2l17.527-17.532ZM177.683,509.425v11.658h18.658v-2.237H180.015v-9.421Zm38.739,11.658V500.1h2.333v9.326h18.658v2.331H218.754v9.327ZM287.916,493H266.925V490.67h20.991Z" transform="translate(-115.751 -490.67)" fill="#eee" fill-rule="evenodd"/><path d="M185.952,598.295a4.3,4.3,0,0,0-1.245-.753,3.841,3.841,0,0,0-1.381-.251,3.042,3.042,0,0,0-2.277.9,3.5,3.5,0,0,0-.024,4.609,2.847,2.847,0,0,0,2.156.9,3.925,3.925,0,0,0,1.445-.269,4.59,4.59,0,0,0,1.315-.81v1.569a4.044,4.044,0,0,1-1.219.6,4.9,4.9,0,0,1-1.428.2,5.006,5.006,0,0,1-1.811-.321,4.273,4.273,0,0,1-2.423-2.39,4.7,4.7,0,0,1-.335-1.771,4.644,4.644,0,0,1,.335-1.765,4.379,4.379,0,0,1,2.431-2.4,4.785,4.785,0,0,1,1.779-.325,4.677,4.677,0,0,1,1.434.219,5.029,5.029,0,0,1,1.325.665l-.076,1.4Zm13.3,2.211a3.249,3.249,0,0,0-.237-1.231,3.2,3.2,0,0,0-.679-1.038,3.009,3.009,0,0,0-1-.691,3.069,3.069,0,0,0-3.413.691,3.1,3.1,0,0,0-.678,1.032,3.3,3.3,0,0,0-.233,1.237,3.237,3.237,0,0,0,.233,1.225,3.183,3.183,0,0,0,.678,1.032,3.083,3.083,0,0,0,3.4.7,3.124,3.124,0,0,0,1.012-.7,3.2,3.2,0,0,0,.916-2.257Zm1.447,0a4.344,4.344,0,0,1-1.337,3.168,4.638,4.638,0,0,1-1.488.974,4.562,4.562,0,0,1-1.737.339,4.642,4.642,0,0,1-1.761-.34,4.564,4.564,0,0,1-1.478-.972,4.327,4.327,0,0,1-.992-1.442,4.441,4.441,0,0,1,.992-4.907,4.518,4.518,0,0,1,1.483-.968,4.779,4.779,0,0,1,3.5,0,4.527,4.527,0,0,1,2.474,2.43,4.407,4.407,0,0,1,.341,1.719Zm5.849,4.254v-8.879l5.431,5.22c.148.147.3.3.45.472s.311.356.478.566v-5.923h1.279v8.879l-5.537-5.318c-.147-.145-.291-.3-.428-.456s-.269-.327-.394-.5v5.941Zm13.368-1.711,1.108-.512a1.523,1.523,0,0,0,.58.871,1.791,1.791,0,0,0,1.074.3,1.384,1.384,0,0,0,.986-.345,1.205,1.205,0,0,0,.365-.92q0-.753-1.251-1.342c-.118-.058-.207-.1-.269-.128a6.025,6.025,0,0,1-1.883-1.247,2.048,2.048,0,0,1-.47-1.362,2.187,2.187,0,0,1,.709-1.693,2.648,2.648,0,0,1,1.861-.648,3.146,3.146,0,0,1,1.582.365,1.92,1.92,0,0,1,.881,1.046L224.1,598a1.791,1.791,0,0,0-.564-.589,1.323,1.323,0,0,0-.705-.187,1.3,1.3,0,0,0-.891.293.984.984,0,0,0-.331.781q0,.771,1.45,1.436c.074.036.132.064.176.081a5.18,5.18,0,0,1,1.739,1.141,2.084,2.084,0,0,1,.472,1.392,2.512,2.512,0,0,1-.765,1.928,2.911,2.911,0,0,1-2.068.715,2.993,2.993,0,0,1-1.789-.5,2.346,2.346,0,0,1-.912-1.436Zm14.069-5.65v7.361h-1.386V597.4h-2.271v-1.183h5.917V597.4Zm8.965,2.462h.253a2.8,2.8,0,0,0,1.464-.257,1.042,1.042,0,0,0,.363-.91,1.16,1.16,0,0,0-.389-.994,2.549,2.549,0,0,0-1.438-.289h-.253v2.449Zm-.084,1.076v3.824h-1.3v-8.544H243.5a6.1,6.1,0,0,1,1.323.112,1.955,1.955,0,0,1,1.414,1.167,2.637,2.637,0,0,1,.215,1.074,2.4,2.4,0,0,1-.5,1.607,2.186,2.186,0,0,1-1.465.7l2.941,3.888h-1.566l-2.845-3.824Zm9.613-4.72h1.375V601.4a2.482,2.482,0,0,0,.534,1.735,2.475,2.475,0,0,0,3.187,0,2.48,2.48,0,0,0,.534-1.735v-5.188h1.386v5.316a3.491,3.491,0,0,1-.875,2.6,4.472,4.472,0,0,1-5.271,0,3.5,3.5,0,0,1-.871-2.6v-5.316Zm20.046,2.079a4.3,4.3,0,0,0-1.245-.753,3.843,3.843,0,0,0-1.381-.251,3.041,3.041,0,0,0-2.277.9,3.5,3.5,0,0,0-.024,4.609,2.847,2.847,0,0,0,2.156.9,3.923,3.923,0,0,0,1.445-.269,4.592,4.592,0,0,0,1.315-.81v1.569a4.041,4.041,0,0,1-1.22.6,4.9,4.9,0,0,1-1.428.2,5,5,0,0,1-1.811-.321,4.27,4.27,0,0,1-2.423-2.39,4.691,4.691,0,0,1-.335-1.771,4.637,4.637,0,0,1,.335-1.765,4.38,4.38,0,0,1,2.43-2.4,4.785,4.785,0,0,1,1.779-.325,4.681,4.681,0,0,1,1.434.219,5.034,5.034,0,0,1,1.325.665l-.075,1.4Zm8.742-.9v7.361h-1.387V597.4h-2.271v-1.183h5.917V597.4Zm7.6,7.361v-8.544h1.387v8.544Zm14.957-4.254a3.241,3.241,0,0,0-.237-1.231,3.2,3.2,0,0,0-.679-1.038,3.011,3.011,0,0,0-1-.691,3.068,3.068,0,0,0-3.413.691,3.1,3.1,0,0,0-.677,1.032,3.3,3.3,0,0,0-.233,1.237,3.238,3.238,0,0,0,.233,1.225,3.175,3.175,0,0,0,.677,1.032,3.083,3.083,0,0,0,3.4.7,3.129,3.129,0,0,0,1.012-.7,3.2,3.2,0,0,0,.916-2.257Zm1.447,0a4.34,4.34,0,0,1-1.337,3.168,4.634,4.634,0,0,1-1.488.974,4.561,4.561,0,0,1-1.737.339,4.642,4.642,0,0,1-1.761-.34,4.558,4.558,0,0,1-1.478-.972,4.328,4.328,0,0,1-.992-1.442,4.44,4.44,0,0,1,.992-4.907,4.513,4.513,0,0,1,1.482-.968,4.779,4.779,0,0,1,3.5,0,4.529,4.529,0,0,1,2.475,2.43,4.413,4.413,0,0,1,.341,1.719Zm5.849,4.254v-8.879l5.431,5.22c.147.147.3.3.45.472s.311.356.478.566v-5.923h1.279v8.879l-5.537-5.318c-.147-.145-.291-.3-.428-.456s-.269-.327-.394-.5v5.941Zm13.368-1.711,1.108-.512a1.521,1.521,0,0,0,.58.871,1.792,1.792,0,0,0,1.074.3,1.383,1.383,0,0,0,.986-.345,1.2,1.2,0,0,0,.365-.92q0-.753-1.251-1.342c-.117-.058-.207-.1-.269-.128a6.025,6.025,0,0,1-1.883-1.247,2.05,2.05,0,0,1-.47-1.362,2.187,2.187,0,0,1,.709-1.693,2.648,2.648,0,0,1,1.861-.648,3.146,3.146,0,0,1,1.582.365,1.918,1.918,0,0,1,.881,1.046l-1.084.561a1.791,1.791,0,0,0-.564-.589,1.323,1.323,0,0,0-.705-.187,1.3,1.3,0,0,0-.891.293.984.984,0,0,0-.331.781q0,.771,1.45,1.436c.074.036.131.064.175.081a5.177,5.177,0,0,1,1.739,1.141,2.082,2.082,0,0,1,.472,1.392,2.513,2.513,0,0,1-.765,1.928,2.913,2.913,0,0,1-2.068.715,2.993,2.993,0,0,1-1.789-.5A2.346,2.346,0,0,1,324.487,603.049Z" transform="translate(-116.393 -555.64)" fill="#eee" fill-rule="evenodd"/><path d="M52.394,531.366v11.649H15.808V506.44H27.46v24.926Z" transform="translate(-15.808 -493.098)" fill="#eee" fill-rule="evenodd"/><path d="M198.623,521.084V497.768l7.1-7.1v23.316l-7.1,7.1ZM15.808,502.319,27.46,490.67H65.738v38.267L54.087,540.586V502.319Zm82.923,18.765V497.768l7.1-7.1v23.316l-7.1,7.1Zm17.748-23.316,7.1-7.1H146.9v23.316l-7.1,7.1V497.768Zm71.495,16.218-7.1,7.1H157.551V497.768l7.1-7.1v23.316Z" transform="translate(-15.808 -490.67)" fill="#eee" fill-rule="evenodd"/></g></g></g></svg>