<svg xmlns="http://www.w3.org/2000/svg" viewBox="0 0 25.16 20.44"><defs><style>.cls-1{fill:#fff;}</style></defs><title>Recurso 40</title><g id="Capa_2" data-name="Capa 2"><g id="Capa_1-2" data-name="Capa 1"><path class="cls-1" d="M25.16,2.42a10.2,10.2,0,0,1-3,.81A5.15,5.15,0,0,0,24.46.38a10.33,10.33,0,0,1-3.28,1.25,5.16,5.16,0,0,0-8.92,3.53,5.08,5.08,0,0,0,.13,1.18A14.69,14.69,0,0,1,1.75,1a5.15,5.15,0,0,0,1.6,6.88A5,5,0,0,1,1,7.19v.06a5.17,5.17,0,0,0,4.14,5.07,5.51,5.51,0,0,1-1.36.18,5.23,5.23,0,0,1-1-.1A5.17,5.17,0,0,0,7.64,16,10.39,10.39,0,0,1,1.23,18.2c-.42,0-.83,0-1.23-.07a14.63,14.63,0,0,0,7.91,2.31A14.59,14.59,0,0,0,22.6,5.76c0-.22,0-.45,0-.67A10.57,10.57,0,0,0,25.16,2.42Z"/></g></g></svg>